# xmcd CD database file
#
# Track frame offsets:
#	150
#	14728
#	29653
#	42425
#	56053
#	70005
#	87658
#	102200
#	124700
#	140327
#	153565
#	168450
#	181860
#	207925
#	223007
#	247292
#	259935
#	281935
#	295377
#
# Disc length: 4103 seconds
#
# Revision: 0
# Processed by: cddbd v1.5.2PL0 Copyright (c) Steve Scherf et al.
# Submitted via: CDex 1.70beta2
#
DISCID=35100513
DTITLE=Kid Ory and Co - Remember New Orleans
DYEAR=1990
DGENRE=Jazz
TTITLE0=Ballin' the Jack
TTITLE1=St James Infirmary
TTITLE2=Bucket's got a hole in it
TTITLE3=Savoy Blues
TTITLE4=Baby, won't you please come home
TTITLE5=Maryland, my maryland
TTITLE6=Milenberg Joys
TTITLE7=Aunt Hagar's Blues
TTITLE8=Bugle Call Rag 
TTITLE9=West end blues
TTITLE10=Eh, la bas
TTITLE11=Shreveport stomp
TTITLE12=Tin roof Blues
TTITLE13=St Louis blues
TTITLE14=Weary blues
TTITLE15=Sugar foot stomp
TTITLE16=Oh, didn't he ramble
TTITLE17=Battle hymn of the republic
TTITLE18=When the saints go marchin' in
EXTD=YEAR: 1990
EXTT0=
EXTT1=
EXTT2=
EXTT3=
EXTT4=
EXTT5=
EXTT6=
EXTT7=
EXTT8=
EXTT9=
EXTT10=
EXTT11=
EXTT12=
EXTT13=
EXTT14=
EXTT15=
EXTT16=
EXTT17=
EXTT18=
PLAYORDER=
